<mxfile host="app.diagrams.net" modified="2023-10-24T17:46:03.779Z" agent="Mozilla/5.0 (Windows NT 10.0; Win64; x64) AppleWebKit/537.36 (KHTML, like Gecko) Chrome/116.0.0.0 Safari/537.36 OPR/102.0.0.0" etag="NHPPnuwvr65psUXssmCw" version="22.0.6" type="github">
  <diagram name="Page-1" id="ym3WfpqSweqgdFW6hXYt">
    <mxGraphModel dx="375" dy="649" grid="1" gridSize="10" guides="1" tooltips="1" connect="1" arrows="1" fold="1" page="1" pageScale="1" pageWidth="1169" pageHeight="827" math="0" shadow="0">
      <root>
        <mxCell id="0" />
        <mxCell id="1" parent="0" />
        <mxCell id="kJCiWuu9zm-i2OTCwc88-32" style="edgeStyle=orthogonalEdgeStyle;shape=connector;rounded=0;orthogonalLoop=1;jettySize=auto;html=1;exitX=0;exitY=0.75;exitDx=0;exitDy=0;exitPerimeter=0;labelBackgroundColor=default;strokeColor=default;align=center;verticalAlign=middle;fontFamily=Helvetica;fontSize=11;fontColor=default;endArrow=none;endFill=0;" edge="1" parent="1" source="kJCiWuu9zm-i2OTCwc88-1">
          <mxGeometry relative="1" as="geometry">
            <mxPoint x="180" y="520.952380952381" as="targetPoint" />
          </mxGeometry>
        </mxCell>
        <mxCell id="kJCiWuu9zm-i2OTCwc88-1" value="" style="verticalLabelPosition=bottom;shadow=0;dashed=0;align=center;html=1;verticalAlign=top;shape=mxgraph.electrical.logic_gates.logic_gate;operation=and;" vertex="1" parent="1">
          <mxGeometry x="230" y="199" width="100" height="60" as="geometry" />
        </mxCell>
        <mxCell id="kJCiWuu9zm-i2OTCwc88-14" style="edgeStyle=orthogonalEdgeStyle;shape=connector;rounded=0;orthogonalLoop=1;jettySize=auto;html=1;exitX=0;exitY=0.25;exitDx=0;exitDy=0;exitPerimeter=0;labelBackgroundColor=default;strokeColor=default;align=center;verticalAlign=middle;fontFamily=Helvetica;fontSize=11;fontColor=default;endArrow=none;endFill=0;" edge="1" parent="1" source="kJCiWuu9zm-i2OTCwc88-2">
          <mxGeometry relative="1" as="geometry">
            <mxPoint x="210" y="214" as="targetPoint" />
          </mxGeometry>
        </mxCell>
        <mxCell id="kJCiWuu9zm-i2OTCwc88-37" style="edgeStyle=orthogonalEdgeStyle;shape=connector;rounded=0;orthogonalLoop=1;jettySize=auto;html=1;exitX=0;exitY=0.75;exitDx=0;exitDy=0;exitPerimeter=0;labelBackgroundColor=default;strokeColor=default;align=center;verticalAlign=middle;fontFamily=Helvetica;fontSize=11;fontColor=default;endArrow=none;endFill=0;" edge="1" parent="1" source="kJCiWuu9zm-i2OTCwc88-2">
          <mxGeometry relative="1" as="geometry">
            <mxPoint x="190" y="485" as="targetPoint" />
            <Array as="points">
              <mxPoint x="160" y="314" />
              <mxPoint x="160" y="485" />
            </Array>
          </mxGeometry>
        </mxCell>
        <mxCell id="kJCiWuu9zm-i2OTCwc88-51" style="edgeStyle=orthogonalEdgeStyle;shape=connector;rounded=0;orthogonalLoop=1;jettySize=auto;html=1;exitX=1;exitY=0.5;exitDx=0;exitDy=0;exitPerimeter=0;labelBackgroundColor=default;strokeColor=default;align=center;verticalAlign=middle;fontFamily=Helvetica;fontSize=11;fontColor=default;endArrow=none;endFill=0;" edge="1" parent="1" source="kJCiWuu9zm-i2OTCwc88-2" target="kJCiWuu9zm-i2OTCwc88-62">
          <mxGeometry relative="1" as="geometry">
            <mxPoint x="760" y="300" as="targetPoint" />
          </mxGeometry>
        </mxCell>
        <mxCell id="kJCiWuu9zm-i2OTCwc88-2" value="" style="verticalLabelPosition=bottom;shadow=0;dashed=0;align=center;html=1;verticalAlign=top;shape=mxgraph.electrical.logic_gates.logic_gate;operation=and;" vertex="1" parent="1">
          <mxGeometry x="230" y="269" width="100" height="60" as="geometry" />
        </mxCell>
        <mxCell id="kJCiWuu9zm-i2OTCwc88-35" style="edgeStyle=orthogonalEdgeStyle;shape=connector;rounded=0;orthogonalLoop=1;jettySize=auto;html=1;exitX=0;exitY=0.25;exitDx=0;exitDy=0;exitPerimeter=0;labelBackgroundColor=default;strokeColor=default;align=center;verticalAlign=middle;fontFamily=Helvetica;fontSize=11;fontColor=default;endArrow=none;endFill=0;" edge="1" parent="1" source="kJCiWuu9zm-i2OTCwc88-3">
          <mxGeometry relative="1" as="geometry">
            <mxPoint x="200" y="455" as="targetPoint" />
          </mxGeometry>
        </mxCell>
        <mxCell id="kJCiWuu9zm-i2OTCwc88-3" value="" style="verticalLabelPosition=bottom;shadow=0;dashed=0;align=center;html=1;verticalAlign=top;shape=mxgraph.electrical.logic_gates.logic_gate;operation=and;" vertex="1" parent="1">
          <mxGeometry x="230" y="440" width="100" height="60" as="geometry" />
        </mxCell>
        <mxCell id="kJCiWuu9zm-i2OTCwc88-55" style="edgeStyle=orthogonalEdgeStyle;shape=connector;rounded=0;orthogonalLoop=1;jettySize=auto;html=1;exitX=1;exitY=0.5;exitDx=0;exitDy=0;exitPerimeter=0;labelBackgroundColor=default;strokeColor=default;align=center;verticalAlign=middle;fontFamily=Helvetica;fontSize=11;fontColor=default;endArrow=none;endFill=0;" edge="1" parent="1" source="kJCiWuu9zm-i2OTCwc88-4">
          <mxGeometry relative="1" as="geometry">
            <mxPoint x="580" y="540" as="targetPoint" />
          </mxGeometry>
        </mxCell>
        <mxCell id="kJCiWuu9zm-i2OTCwc88-4" value="" style="verticalLabelPosition=bottom;shadow=0;dashed=0;align=center;html=1;verticalAlign=top;shape=mxgraph.electrical.logic_gates.logic_gate;operation=and;" vertex="1" parent="1">
          <mxGeometry x="230" y="510" width="100" height="60" as="geometry" />
        </mxCell>
        <mxCell id="kJCiWuu9zm-i2OTCwc88-48" style="edgeStyle=orthogonalEdgeStyle;shape=connector;rounded=0;orthogonalLoop=1;jettySize=auto;html=1;exitX=0;exitY=0.25;exitDx=0;exitDy=0;exitPerimeter=0;labelBackgroundColor=default;strokeColor=default;align=center;verticalAlign=middle;fontFamily=Helvetica;fontSize=11;fontColor=default;endArrow=none;endFill=0;" edge="1" parent="1" source="kJCiWuu9zm-i2OTCwc88-5">
          <mxGeometry relative="1" as="geometry">
            <mxPoint x="390" y="330" as="targetPoint" />
            <Array as="points">
              <mxPoint x="390" y="440" />
              <mxPoint x="390" y="330" />
            </Array>
          </mxGeometry>
        </mxCell>
        <mxCell id="kJCiWuu9zm-i2OTCwc88-5" value="" style="verticalLabelPosition=bottom;shadow=0;dashed=0;align=center;html=1;verticalAlign=top;shape=mxgraph.electrical.logic_gates.logic_gate;operation=and;" vertex="1" parent="1">
          <mxGeometry x="420" y="425" width="100" height="60" as="geometry" />
        </mxCell>
        <mxCell id="kJCiWuu9zm-i2OTCwc88-46" style="edgeStyle=orthogonalEdgeStyle;shape=connector;rounded=0;orthogonalLoop=1;jettySize=auto;html=1;exitX=0;exitY=0.75;exitDx=0;exitDy=0;exitPerimeter=0;labelBackgroundColor=default;strokeColor=default;align=center;verticalAlign=middle;fontFamily=Helvetica;fontSize=11;fontColor=default;endArrow=none;endFill=0;" edge="1" parent="1" source="kJCiWuu9zm-i2OTCwc88-6">
          <mxGeometry relative="1" as="geometry">
            <mxPoint x="370" y="470" as="targetPoint" />
          </mxGeometry>
        </mxCell>
        <mxCell id="kJCiWuu9zm-i2OTCwc88-53" style="edgeStyle=orthogonalEdgeStyle;shape=connector;rounded=0;orthogonalLoop=1;jettySize=auto;html=1;exitX=1;exitY=0.5;exitDx=0;exitDy=0;exitPerimeter=0;labelBackgroundColor=default;strokeColor=default;align=center;verticalAlign=middle;fontFamily=Helvetica;fontSize=11;fontColor=default;endArrow=none;endFill=0;entryX=0.1;entryY=0.5;entryDx=0;entryDy=0;entryPerimeter=0;" edge="1" parent="1" source="kJCiWuu9zm-i2OTCwc88-6" target="kJCiWuu9zm-i2OTCwc88-63">
          <mxGeometry relative="1" as="geometry">
            <mxPoint x="750" y="350" as="targetPoint" />
          </mxGeometry>
        </mxCell>
        <mxCell id="kJCiWuu9zm-i2OTCwc88-6" value="" style="verticalLabelPosition=bottom;shadow=0;dashed=0;align=center;html=1;verticalAlign=top;shape=mxgraph.electrical.logic_gates.logic_gate;operation=xor;" vertex="1" parent="1">
          <mxGeometry x="420" y="320" width="100" height="60" as="geometry" />
        </mxCell>
        <mxCell id="kJCiWuu9zm-i2OTCwc88-54" style="edgeStyle=orthogonalEdgeStyle;shape=connector;rounded=0;orthogonalLoop=1;jettySize=auto;html=1;exitX=0;exitY=0.25;exitDx=0;exitDy=0;exitPerimeter=0;labelBackgroundColor=default;strokeColor=default;align=center;verticalAlign=middle;fontFamily=Helvetica;fontSize=11;fontColor=default;endArrow=none;endFill=0;" edge="1" parent="1" source="kJCiWuu9zm-i2OTCwc88-7">
          <mxGeometry relative="1" as="geometry">
            <mxPoint x="540" y="455" as="targetPoint" />
          </mxGeometry>
        </mxCell>
        <mxCell id="kJCiWuu9zm-i2OTCwc88-57" style="edgeStyle=orthogonalEdgeStyle;shape=connector;rounded=0;orthogonalLoop=1;jettySize=auto;html=1;exitX=0;exitY=0.75;exitDx=0;exitDy=0;exitPerimeter=0;labelBackgroundColor=default;strokeColor=default;align=center;verticalAlign=middle;fontFamily=Helvetica;fontSize=11;fontColor=default;endArrow=none;endFill=0;" edge="1" parent="1" source="kJCiWuu9zm-i2OTCwc88-7">
          <mxGeometry relative="1" as="geometry">
            <mxPoint x="580" y="490" as="targetPoint" />
          </mxGeometry>
        </mxCell>
        <mxCell id="kJCiWuu9zm-i2OTCwc88-7" value="" style="verticalLabelPosition=bottom;shadow=0;dashed=0;align=center;html=1;verticalAlign=top;shape=mxgraph.electrical.logic_gates.logic_gate;operation=xor;" vertex="1" parent="1">
          <mxGeometry x="600" y="365" width="100" height="60" as="geometry" />
        </mxCell>
        <mxCell id="kJCiWuu9zm-i2OTCwc88-56" style="edgeStyle=orthogonalEdgeStyle;shape=connector;rounded=0;orthogonalLoop=1;jettySize=auto;html=1;exitX=0;exitY=0.75;exitDx=0;exitDy=0;exitPerimeter=0;labelBackgroundColor=default;strokeColor=default;align=center;verticalAlign=middle;fontFamily=Helvetica;fontSize=11;fontColor=default;endArrow=none;endFill=0;" edge="1" parent="1" source="kJCiWuu9zm-i2OTCwc88-8">
          <mxGeometry relative="1" as="geometry">
            <mxPoint x="580" y="540" as="targetPoint" />
          </mxGeometry>
        </mxCell>
        <mxCell id="kJCiWuu9zm-i2OTCwc88-8" value="" style="verticalLabelPosition=bottom;shadow=0;dashed=0;align=center;html=1;verticalAlign=top;shape=mxgraph.electrical.logic_gates.logic_gate;operation=and;" vertex="1" parent="1">
          <mxGeometry x="600" y="440" width="100" height="60" as="geometry" />
        </mxCell>
        <mxCell id="kJCiWuu9zm-i2OTCwc88-9" value="" style="verticalLabelPosition=bottom;shadow=0;dashed=0;align=center;html=1;verticalAlign=top;shape=mxgraph.electrical.logic_gates.inverting_contact;fontFamily=Helvetica;fontSize=11;fontColor=default;" vertex="1" parent="1">
          <mxGeometry x="100" y="209" width="10" height="10" as="geometry" />
        </mxCell>
        <mxCell id="kJCiWuu9zm-i2OTCwc88-10" value="" style="verticalLabelPosition=bottom;shadow=0;dashed=0;align=center;html=1;verticalAlign=top;shape=mxgraph.electrical.logic_gates.inverting_contact;fontFamily=Helvetica;fontSize=11;fontColor=default;" vertex="1" parent="1">
          <mxGeometry x="100" y="239" width="10" height="10" as="geometry" />
        </mxCell>
        <mxCell id="kJCiWuu9zm-i2OTCwc88-11" value="" style="verticalLabelPosition=bottom;shadow=0;dashed=0;align=center;html=1;verticalAlign=top;shape=mxgraph.electrical.logic_gates.inverting_contact;" vertex="1" parent="1">
          <mxGeometry x="100" y="480" width="10" height="10" as="geometry" />
        </mxCell>
        <mxCell id="kJCiWuu9zm-i2OTCwc88-13" style="edgeStyle=orthogonalEdgeStyle;rounded=0;orthogonalLoop=1;jettySize=auto;html=1;exitX=0.9;exitY=0.5;exitDx=0;exitDy=0;exitPerimeter=0;entryX=0;entryY=0.25;entryDx=0;entryDy=0;entryPerimeter=0;endArrow=none;endFill=0;" edge="1" parent="1" source="kJCiWuu9zm-i2OTCwc88-9" target="kJCiWuu9zm-i2OTCwc88-1">
          <mxGeometry relative="1" as="geometry" />
        </mxCell>
        <mxCell id="kJCiWuu9zm-i2OTCwc88-15" value="" style="verticalLabelPosition=bottom;shadow=0;dashed=0;align=center;html=1;verticalAlign=top;shape=mxgraph.electrical.logic_gates.inverting_contact;fontFamily=Helvetica;fontSize=11;fontColor=default;fillColor=#000000;" vertex="1" parent="1">
          <mxGeometry x="205" y="209" width="10" height="10" as="geometry" />
        </mxCell>
        <mxCell id="kJCiWuu9zm-i2OTCwc88-22" style="edgeStyle=orthogonalEdgeStyle;shape=connector;rounded=0;orthogonalLoop=1;jettySize=auto;html=1;exitX=0;exitY=0.75;exitDx=0;exitDy=0;exitPerimeter=0;entryX=0.9;entryY=0.5;entryDx=0;entryDy=0;entryPerimeter=0;labelBackgroundColor=default;strokeColor=default;align=center;verticalAlign=middle;fontFamily=Helvetica;fontSize=11;fontColor=default;endArrow=none;endFill=0;" edge="1" parent="1" source="kJCiWuu9zm-i2OTCwc88-3" target="kJCiWuu9zm-i2OTCwc88-11">
          <mxGeometry relative="1" as="geometry" />
        </mxCell>
        <mxCell id="kJCiWuu9zm-i2OTCwc88-28" value="" style="verticalLabelPosition=bottom;shadow=0;dashed=0;align=center;html=1;verticalAlign=top;shape=mxgraph.electrical.logic_gates.inverting_contact;" vertex="1" parent="1">
          <mxGeometry x="100" y="510" width="10" height="10" as="geometry" />
        </mxCell>
        <mxCell id="kJCiWuu9zm-i2OTCwc88-31" style="edgeStyle=orthogonalEdgeStyle;shape=connector;rounded=0;orthogonalLoop=1;jettySize=auto;html=1;exitX=0.9;exitY=0.5;exitDx=0;exitDy=0;exitPerimeter=0;entryX=0;entryY=0.75;entryDx=0;entryDy=0;entryPerimeter=0;labelBackgroundColor=default;strokeColor=default;align=center;verticalAlign=middle;fontFamily=Helvetica;fontSize=11;fontColor=default;endArrow=none;endFill=0;" edge="1" parent="1" source="kJCiWuu9zm-i2OTCwc88-28" target="kJCiWuu9zm-i2OTCwc88-4">
          <mxGeometry relative="1" as="geometry">
            <Array as="points">
              <mxPoint x="180" y="515" />
              <mxPoint x="180" y="555" />
            </Array>
          </mxGeometry>
        </mxCell>
        <mxCell id="kJCiWuu9zm-i2OTCwc88-33" value="" style="verticalLabelPosition=bottom;shadow=0;dashed=0;align=center;html=1;verticalAlign=top;shape=mxgraph.electrical.logic_gates.inverting_contact;fontFamily=Helvetica;fontSize=11;fontColor=default;fillColor=#000000;" vertex="1" parent="1">
          <mxGeometry x="174" y="511" width="10" height="10" as="geometry" />
        </mxCell>
        <mxCell id="kJCiWuu9zm-i2OTCwc88-34" style="edgeStyle=orthogonalEdgeStyle;shape=connector;rounded=0;orthogonalLoop=1;jettySize=auto;html=1;exitX=0.9;exitY=0.5;exitDx=0;exitDy=0;exitPerimeter=0;entryX=0;entryY=0.25;entryDx=0;entryDy=0;entryPerimeter=0;labelBackgroundColor=default;strokeColor=default;align=center;verticalAlign=middle;fontFamily=Helvetica;fontSize=11;fontColor=default;endArrow=none;endFill=0;" edge="1" parent="1" source="kJCiWuu9zm-i2OTCwc88-10" target="kJCiWuu9zm-i2OTCwc88-4">
          <mxGeometry relative="1" as="geometry">
            <Array as="points">
              <mxPoint x="140" y="244" />
              <mxPoint x="140" y="410" />
              <mxPoint x="200" y="410" />
              <mxPoint x="200" y="525" />
            </Array>
          </mxGeometry>
        </mxCell>
        <mxCell id="kJCiWuu9zm-i2OTCwc88-36" value="" style="verticalLabelPosition=bottom;shadow=0;dashed=0;align=center;html=1;verticalAlign=top;shape=mxgraph.electrical.logic_gates.inverting_contact;fontFamily=Helvetica;fontSize=11;fontColor=default;fillColor=#000000;" vertex="1" parent="1">
          <mxGeometry x="195" y="450" width="10" height="10" as="geometry" />
        </mxCell>
        <mxCell id="kJCiWuu9zm-i2OTCwc88-38" value="" style="verticalLabelPosition=bottom;shadow=0;dashed=0;align=center;html=1;verticalAlign=top;shape=mxgraph.electrical.logic_gates.inverting_contact;fontFamily=Helvetica;fontSize=11;fontColor=default;fillColor=#000000;" vertex="1" parent="1">
          <mxGeometry x="155" y="480" width="10" height="10" as="geometry" />
        </mxCell>
        <mxCell id="kJCiWuu9zm-i2OTCwc88-39" value="&lt;font style=&quot;font-size: 25px;&quot;&gt;A0&lt;/font&gt;" style="text;html=1;align=center;verticalAlign=middle;resizable=0;points=[];autosize=1;strokeColor=none;fillColor=none;fontSize=11;fontFamily=Helvetica;fontColor=default;" vertex="1" parent="1">
          <mxGeometry x="60" y="194" width="50" height="40" as="geometry" />
        </mxCell>
        <mxCell id="kJCiWuu9zm-i2OTCwc88-41" value="&lt;font style=&quot;font-size: 25px;&quot;&gt;A1&lt;/font&gt;" style="text;html=1;align=center;verticalAlign=middle;resizable=0;points=[];autosize=1;strokeColor=none;fillColor=none;fontSize=11;fontFamily=Helvetica;fontColor=default;" vertex="1" parent="1">
          <mxGeometry x="60" y="224" width="50" height="40" as="geometry" />
        </mxCell>
        <mxCell id="kJCiWuu9zm-i2OTCwc88-42" value="&lt;font style=&quot;font-size: 25px;&quot;&gt;B0&lt;/font&gt;" style="text;html=1;align=center;verticalAlign=middle;resizable=0;points=[];autosize=1;strokeColor=none;fillColor=none;fontSize=11;fontFamily=Helvetica;fontColor=default;" vertex="1" parent="1">
          <mxGeometry x="60" y="465" width="50" height="40" as="geometry" />
        </mxCell>
        <mxCell id="kJCiWuu9zm-i2OTCwc88-43" value="&lt;font style=&quot;font-size: 25px;&quot;&gt;B1&lt;/font&gt;" style="text;html=1;align=center;verticalAlign=middle;resizable=0;points=[];autosize=1;strokeColor=none;fillColor=none;fontSize=11;fontFamily=Helvetica;fontColor=default;" vertex="1" parent="1">
          <mxGeometry x="60" y="495" width="50" height="40" as="geometry" />
        </mxCell>
        <mxCell id="kJCiWuu9zm-i2OTCwc88-45" style="edgeStyle=orthogonalEdgeStyle;shape=connector;rounded=0;orthogonalLoop=1;jettySize=auto;html=1;exitX=1;exitY=0.5;exitDx=0;exitDy=0;exitPerimeter=0;entryX=0;entryY=0.75;entryDx=0;entryDy=0;entryPerimeter=0;labelBackgroundColor=default;strokeColor=default;align=center;verticalAlign=middle;fontFamily=Helvetica;fontSize=11;fontColor=default;endArrow=none;endFill=0;" edge="1" parent="1" source="kJCiWuu9zm-i2OTCwc88-3" target="kJCiWuu9zm-i2OTCwc88-5">
          <mxGeometry relative="1" as="geometry" />
        </mxCell>
        <mxCell id="kJCiWuu9zm-i2OTCwc88-47" style="edgeStyle=orthogonalEdgeStyle;shape=connector;rounded=0;orthogonalLoop=1;jettySize=auto;html=1;exitX=1;exitY=0.5;exitDx=0;exitDy=0;exitPerimeter=0;entryX=0;entryY=0.25;entryDx=0;entryDy=0;entryPerimeter=0;labelBackgroundColor=default;strokeColor=default;align=center;verticalAlign=middle;fontFamily=Helvetica;fontSize=11;fontColor=default;endArrow=none;endFill=0;" edge="1" parent="1" source="kJCiWuu9zm-i2OTCwc88-1" target="kJCiWuu9zm-i2OTCwc88-6">
          <mxGeometry relative="1" as="geometry">
            <Array as="points">
              <mxPoint x="390" y="229" />
              <mxPoint x="390" y="335" />
            </Array>
          </mxGeometry>
        </mxCell>
        <mxCell id="kJCiWuu9zm-i2OTCwc88-49" value="" style="verticalLabelPosition=bottom;shadow=0;dashed=0;align=center;html=1;verticalAlign=top;shape=mxgraph.electrical.logic_gates.inverting_contact;fontFamily=Helvetica;fontSize=11;fontColor=default;fillColor=#000000;" vertex="1" parent="1">
          <mxGeometry x="385" y="329" width="10" height="10" as="geometry" />
        </mxCell>
        <mxCell id="kJCiWuu9zm-i2OTCwc88-50" value="" style="verticalLabelPosition=bottom;shadow=0;dashed=0;align=center;html=1;verticalAlign=top;shape=mxgraph.electrical.logic_gates.inverting_contact;fontFamily=Helvetica;fontSize=11;fontColor=default;fillColor=#000000;" vertex="1" parent="1">
          <mxGeometry x="366" y="465" width="10" height="10" as="geometry" />
        </mxCell>
        <mxCell id="kJCiWuu9zm-i2OTCwc88-52" style="edgeStyle=orthogonalEdgeStyle;shape=connector;rounded=0;orthogonalLoop=1;jettySize=auto;html=1;exitX=1;exitY=0.5;exitDx=0;exitDy=0;exitPerimeter=0;entryX=0;entryY=0.25;entryDx=0;entryDy=0;entryPerimeter=0;labelBackgroundColor=default;strokeColor=default;align=center;verticalAlign=middle;fontFamily=Helvetica;fontSize=11;fontColor=default;endArrow=none;endFill=0;" edge="1" parent="1" source="kJCiWuu9zm-i2OTCwc88-5" target="kJCiWuu9zm-i2OTCwc88-8">
          <mxGeometry relative="1" as="geometry" />
        </mxCell>
        <mxCell id="kJCiWuu9zm-i2OTCwc88-58" value="" style="verticalLabelPosition=bottom;shadow=0;dashed=0;align=center;html=1;verticalAlign=top;shape=mxgraph.electrical.logic_gates.inverting_contact;fontFamily=Helvetica;fontSize=11;fontColor=default;fillColor=#000000;" vertex="1" parent="1">
          <mxGeometry x="575" y="480" width="10" height="10" as="geometry" />
        </mxCell>
        <mxCell id="kJCiWuu9zm-i2OTCwc88-59" value="" style="verticalLabelPosition=bottom;shadow=0;dashed=0;align=center;html=1;verticalAlign=top;shape=mxgraph.electrical.logic_gates.inverting_contact;fontFamily=Helvetica;fontSize=11;fontColor=default;fillColor=#000000;" vertex="1" parent="1">
          <mxGeometry x="535" y="449" width="10" height="10" as="geometry" />
        </mxCell>
        <mxCell id="kJCiWuu9zm-i2OTCwc88-60" value="" style="verticalLabelPosition=bottom;shadow=0;dashed=0;align=center;html=1;verticalAlign=top;shape=mxgraph.electrical.logic_gates.inverting_contact;fontFamily=Helvetica;fontSize=11;fontColor=default;" vertex="1" parent="1">
          <mxGeometry x="755" y="439" width="10" height="10" as="geometry" />
        </mxCell>
        <mxCell id="kJCiWuu9zm-i2OTCwc88-61" value="" style="verticalLabelPosition=bottom;shadow=0;dashed=0;align=center;html=1;verticalAlign=top;shape=mxgraph.electrical.logic_gates.inverting_contact;fontFamily=Helvetica;fontSize=11;fontColor=default;" vertex="1" parent="1">
          <mxGeometry x="755" y="390" width="10" height="10" as="geometry" />
        </mxCell>
        <mxCell id="kJCiWuu9zm-i2OTCwc88-62" value="" style="verticalLabelPosition=bottom;shadow=0;dashed=0;align=center;html=1;verticalAlign=top;shape=mxgraph.electrical.logic_gates.inverting_contact;fontFamily=Helvetica;fontSize=11;fontColor=default;" vertex="1" parent="1">
          <mxGeometry x="755" y="295" width="10" height="10" as="geometry" />
        </mxCell>
        <mxCell id="kJCiWuu9zm-i2OTCwc88-63" value="" style="verticalLabelPosition=bottom;shadow=0;dashed=0;align=center;html=1;verticalAlign=top;shape=mxgraph.electrical.logic_gates.inverting_contact;fontFamily=Helvetica;fontSize=11;fontColor=default;" vertex="1" parent="1">
          <mxGeometry x="755" y="345" width="10" height="10" as="geometry" />
        </mxCell>
        <mxCell id="kJCiWuu9zm-i2OTCwc88-66" style="edgeStyle=orthogonalEdgeStyle;shape=connector;rounded=0;orthogonalLoop=1;jettySize=auto;html=1;exitX=1;exitY=0.5;exitDx=0;exitDy=0;exitPerimeter=0;entryX=0.1;entryY=0.5;entryDx=0;entryDy=0;entryPerimeter=0;labelBackgroundColor=default;strokeColor=default;align=center;verticalAlign=middle;fontFamily=Helvetica;fontSize=11;fontColor=default;endArrow=none;endFill=0;" edge="1" parent="1" source="kJCiWuu9zm-i2OTCwc88-7" target="kJCiWuu9zm-i2OTCwc88-61">
          <mxGeometry relative="1" as="geometry" />
        </mxCell>
        <mxCell id="kJCiWuu9zm-i2OTCwc88-67" style="edgeStyle=orthogonalEdgeStyle;shape=connector;rounded=0;orthogonalLoop=1;jettySize=auto;html=1;exitX=1;exitY=0.5;exitDx=0;exitDy=0;exitPerimeter=0;entryX=0.1;entryY=0.5;entryDx=0;entryDy=0;entryPerimeter=0;labelBackgroundColor=default;strokeColor=default;align=center;verticalAlign=middle;fontFamily=Helvetica;fontSize=11;fontColor=default;endArrow=none;endFill=0;" edge="1" parent="1" source="kJCiWuu9zm-i2OTCwc88-8" target="kJCiWuu9zm-i2OTCwc88-60">
          <mxGeometry relative="1" as="geometry" />
        </mxCell>
        <mxCell id="kJCiWuu9zm-i2OTCwc88-68" value="&lt;div style=&quot;text-align: center;&quot;&gt;&lt;span style=&quot;background-color: initial; font-size: 25px;&quot;&gt;C0&lt;/span&gt;&lt;/div&gt;" style="text;whiteSpace=wrap;html=1;fontSize=11;fontFamily=Helvetica;fontColor=default;" vertex="1" parent="1">
          <mxGeometry x="765" y="274" width="60" height="50" as="geometry" />
        </mxCell>
        <mxCell id="kJCiWuu9zm-i2OTCwc88-69" value="&lt;div style=&quot;text-align: center;&quot;&gt;&lt;span style=&quot;background-color: initial; font-size: 25px;&quot;&gt;C1&lt;/span&gt;&lt;/div&gt;" style="text;whiteSpace=wrap;html=1;fontSize=11;fontFamily=Helvetica;fontColor=default;" vertex="1" parent="1">
          <mxGeometry x="765" y="325" width="60" height="50" as="geometry" />
        </mxCell>
        <mxCell id="kJCiWuu9zm-i2OTCwc88-70" value="&lt;div style=&quot;text-align: center;&quot;&gt;&lt;span style=&quot;background-color: initial; font-size: 25px;&quot;&gt;C2&lt;/span&gt;&lt;/div&gt;" style="text;whiteSpace=wrap;html=1;fontSize=11;fontFamily=Helvetica;fontColor=default;" vertex="1" parent="1">
          <mxGeometry x="765" y="370" width="60" height="50" as="geometry" />
        </mxCell>
        <mxCell id="kJCiWuu9zm-i2OTCwc88-71" value="&lt;div style=&quot;text-align: center;&quot;&gt;&lt;span style=&quot;background-color: initial; font-size: 25px;&quot;&gt;C3&lt;/span&gt;&lt;/div&gt;" style="text;whiteSpace=wrap;html=1;fontSize=11;fontFamily=Helvetica;fontColor=default;" vertex="1" parent="1">
          <mxGeometry x="765" y="419" width="60" height="50" as="geometry" />
        </mxCell>
      </root>
    </mxGraphModel>
  </diagram>
</mxfile>
